<?xml version="1.0" encoding="UTF-8"?>
<svg width="88px" height="88px" viewBox="0 0 88 88" version="1.1" xmlns="http://www.w3.org/2000/svg" xmlns:xlink="http://www.w3.org/1999/xlink">
    <title>ETH</title>
    <g id="-Light" stroke="none" stroke-width="1" fill="#ffffff" fill-rule="evenodd">
        <g id="ETH">
            <path d="M44,0 C68.300529,0 88,19.699471 88,44 C88,68.300529 68.300529,88 44,88 C19.699471,88 0,68.300529 0,44 C0,19.699471 19.699471,0 44,0 Z M57.28,47.3254693 L43.5770457,54.8761632 L30.1431825,47.3254693 L43.7012415,65.66 L57.28,47.3254693 Z M43.6184444,38.4092245 L29.605,44.1324898 L43.6184444,51.6831837 L57.2386013,44.2931428 L43.6184444,38.4092245 Z M43.535647,21.38 L30.1017839,41.2206531 L43.5563463,35.7182858 L56.5969221,41.3612245 L43.535647,21.38 Z" id="形状结合" fill="#4662B1"></path>
            <g id="eth-classic" transform="translate(29.605000, 21.380000)"></g>
        </g>
    </g>
</svg>