<?xml version="1.0" encoding="UTF-8"?>
<svg width="88px" height="88px" viewBox="0 0 88 88" version="1.1" xmlns="http://www.w3.org/2000/svg" xmlns:xlink="http://www.w3.org/1999/xlink">
    <title>BNB</title>
    <g id="-Light" stroke="none" stroke-width="1" fill="#ffffff" fill-rule="evenodd">
        <g id="BNB" fill="#F8BB0D">
            <path d="M44,0 C68.300529,0 88,19.699471 88,44 C88,68.300529 68.300529,88 44,88 C19.699471,88 0,68.300529 0,44 C0,19.699471 19.699471,0 44,0 Z M51.7609302,47.5640519 L43.2397961,56.085186 L34.7180124,47.5640519 L29.5219137,52.7601506 L38.0430478,61.2819343 L43.2397961,66.478033 L48.4358948,61.2819343 L56.9570289,52.7601506 L51.7609302,47.5640519 Z M43.2388866,39.0427229 L38.0427879,44.2388216 L43.2388866,49.4349203 L48.4349852,44.2388216 L43.2388866,39.0427229 Z M26.1960987,39.0426579 L21,44.2387566 L26.1960987,49.4348553 L31.3921974,44.2387566 L26.1960987,39.0426579 Z M60.2816744,39.0427879 L55.0855758,44.2388866 L60.2816744,49.4349852 L65.4777731,44.2388866 L60.2816744,39.0427879 Z M43.2397961,22 L38.0430478,27.1960987 L29.5219137,35.7172328 L34.7180124,40.9139811 L43.2397961,32.3921974 L51.7609302,40.9139811 L56.9570289,35.7172328 L48.4358948,27.1960987 L43.2397961,22 Z" id="形状结合"></path>
        </g>
    </g>
</svg>