<?xml version="1.0" encoding="UTF-8"?>
<svg width="88px" height="88px" viewBox="0 0 88 88" version="1.1" xmlns="http://www.w3.org/2000/svg" xmlns:xlink="http://www.w3.org/1999/xlink">
    <title>TRE</title>
    <g id="-Light" stroke="none" stroke-width="1" fill="none" fill-rule="evenodd">
        <g id="TRE">
            <path d="M44,0 C68.300529,0 88,19.699471 88,44 C88,68.300529 68.300529,88 44,88 C19.699471,88 0,68.300529 0,44 C0,19.699471 19.699471,0 44,0 Z M52.7741294,25 L31.5589411,25 C28.178816,25.1569417 25.121442,27.054286 23.4803098,30.0134347 L23.4803098,30.0134347 L17.8603923,41.2977606 C16.1912143,44.9301662 16.9976671,49.220608 19.8718545,51.99902 L19.8718545,51.99902 L36.1017077,66.727887 C37.7678159,68.2173371 39.9319071,69.0278268 42.1665352,68.9992703 C44.3999256,69.0183697 46.5609791,68.2081833 48.2313628,66.7255453 L48.2313628,66.7255453 L64.4588744,51.9966784 C67.3338672,49.2188195 68.1412721,44.9283072 66.4726781,41.2954189 L66.4726781,41.2954189 L60.8527607,30.0110931 C59.2100229,27.0538148 56.1533575,25.1577962 52.7741294,25 L52.7741294,25 Z M51.5330643,37.0359899 C52.5003431,37.0423747 53.2829036,37.8249353 53.2892885,38.7922141 L53.2892885,38.7922141 L53.2819164,38.943321 C53.2000172,39.8397176 52.4494337,40.5423894 51.5330643,40.5484383 L51.5330643,40.5484383 L43.922,40.548 L43.9227594,52.8420076 L43.9153873,52.9931146 C43.8334881,53.8895112 43.0829046,54.592183 42.1665352,54.5982318 L42.1665352,54.5982318 L42.0154283,54.5908597 C41.1190317,54.5089605 40.4163599,53.758377 40.410311,52.8420076 L40.410311,52.8420076 L40.41,40.548 L32.8000062,40.5484383 L32.6488992,40.5410661 C31.7525026,40.4591669 31.0498308,39.7085834 31.043782,38.7922141 C31.0501668,37.8249353 31.8327274,37.0423747 32.8000062,37.0359899 L32.8000062,37.0359899 Z" id="形状结合" fill="#34B992"></path>
            <g id="编组" transform="translate(17.000000, 25.000000)"></g>
        </g>
    </g>
</svg>