<?xml version="1.0" encoding="UTF-8"?>
<svg width="86px" height="88px" viewBox="0 0 86 88" version="1.1" xmlns="http://www.w3.org/2000/svg" xmlns:xlink="http://www.w3.org/1999/xlink">
    <title>TD</title>
    <g id="-Light" stroke="none" stroke-width="1" fill="none" fill-rule="evenodd">
        <g id="TD" fill="#1BA27A" fill-rule="nonzero">
            <path d="M43,0 C66.7489,0 86,19.69924 86,44 C86,68.3012 66.7489,88 43,88 C19.2519601,88 0,68.3012 0,44 C0,19.69924 19.25196,0 43,0 Z M58.3842448,28 L25.4652225,28 L25.4652225,35.9028827 L37.9510889,35.9028827 L37.950927,41.1353594 C28.2907025,41.5560619 21,43.4532707 21,45.7303212 C21,48.0074992 28.2905778,49.9047442 37.9514365,50.325125 L37.9514365,50.325125 L37.9514365,67 L45.8980308,67 L45.8980308,50.3316934 L46.3323383,50.3124612 C55.8515476,49.8674925 63,47.9850901 63,45.7303212 C63,43.4414588 55.6340072,41.5363892 45.8989783,41.1289318 L45.8989783,41.1289318 L45.8983785,35.9028827 L58.3842448,35.9028827 L58.3842448,28 Z M45.8986664,41.5730295 C54.3562318,41.9212571 60.7023781,43.3794114 60.7023781,45.1249867 C60.7023781,47.1025848 52.5598513,48.7107302 42.4293875,48.7550194 L42.4293875,48.7550194 L41.57096,48.7550194 C31.4404868,48.7107302 23.2976219,47.1025847 23.2976219,45.1249867 C23.2976219,43.3897513 29.5688085,41.9385418 37.9514877,41.5793343 L37.9514877,41.5793343 L37.9510889,47.5186682 L45.8983785,47.5186682 Z" id="形状结合"></path>
        </g>
    </g>
</svg>